# xmcd CD database file
#
# Track frame offsets:
#	150
#	21491
#	39679
#	53023
#	68262
#	82811
#	100207
#	120318
#	136609
#	150446
#	165383
#	175799
#	189186
#	200234
#	213873
#	233047
#	247293
#	262794
#	277701
#	292108
#
# Disc length: 4110 seconds
#
# Revision: 0
# Processed by: cddbd v1.5.2PL0 Copyright (c) Steve Scherf et al.
# Submitted via: ACXtractor (MTCDDB.DLL V2003.07.15)
#
DISCID=01100c14
DTITLE=Adam Harvey and Troy Casser Daley - UnThe Great Country Songbook
DYEAR=2009
DGENRE=Country
TTITLE0=Good Hearted Woman
TTITLE1=Mama Don't let Your Babies grow up to be Cowboys
TTITLE2=Crystal Chandeliers
TTITLE3=He Stopped Loving Her Today
TTITLE4=Lights on the Hill
TTITLE5=For the Good Times
TTITLE6=Coward of the County
TTITLE7=Luckenback Texas
TTITLE8=Indian Pacific
TTITLE9=Rhinstone Cowboy
TTITLE10=Mama Tried
TTITLE11=Behind Closed Doors
TTITLE12=I Walk the Line
TTITLE13=Hey Good Lookin'
TTITLE14=Old Dogs Children and Watermelon wine
TTITLE15=Oh Lonsome Me
TTITLE16=You're My Best Friend
TTITLE17=Seven Spanish Angels
TTITLE18=That's the Way Love Goes
TTITLE19=Medley
EXTD=ID3G:   2 YEAR: 2009
EXTT0=
EXTT1=
EXTT2=
EXTT3=
EXTT4=
EXTT5=
EXTT6=
EXTT7=
EXTT8=
EXTT9=
EXTT10=
EXTT11=
EXTT12=
EXTT13=
EXTT14=
EXTT15=
EXTT16=
EXTT17=
EXTT18=
EXTT19=
PLAYORDER=
